<svg xmlns="http://www.w3.org/2000/svg" viewBox="1582.868 -62.464 987.132 1679.477"><path d="M2183.358 906.1c89.748-19.754 167.901-64.413 234.031-134.407 85.883-90.607 129.254-199.678 129.254-323.78 0-81.159-20.612-159.312-61.406-232.313-41.653-75.147-100.483-134.407-175.631-176.06-73.43-41.224-151.583-62.265-232.743-62.265-81.589 0-160.172 20.612-233.172 61.406-74.289 41.654-133.548 100.484-175.63 175.631l-.43.43c-40.795 73.859-61.407 152.012-61.407 233.172 0 83.306 21.471 163.178 63.983 237.896l.43.859c43.8 74.718 103.06 132.689 176.489 172.195l.859.43c41.224 21.9 81.16 37.358 120.236 46.805v133.978h-337.52v215.137h337.52v322.061h215.137v-322.061h336.661v-215.137h-336.661V906.1zm-107.354-715.835c44.23 0 85.883 11.165 128.395 34.353l.86.43c40.794 21.47 71.711 51.959 94.47 92.753 23.618 42.512 35.213 85.454 35.213 130.542 0 72.571-24.907 132.26-76.007 183.79-50.67 50.67-110.36 75.577-182.93 75.577-71.713 0-131.83-24.477-182.931-75.577-50.671-51.1-75.577-111.219-75.577-183.79 0-45.088 11.594-88.03 35.212-130.542 22.759-40.794 53.676-71.283 94.041-93.183 43.371-23.188 85.454-34.353 129.254-34.353z"/></svg>